<svg width="13" height="13" viewBox="0 0 13 13" fill="none" xmlns="http://www.w3.org/2000/svg">
<path fill-rule="evenodd" clip-rule="evenodd" d="M6.4 12.0823C9.93462 12.0823 12.8 9.39598 12.8 6.08228C12.8 4.52996 12.1712 3.11532 11.1394 2.05003L11.1535 2.03586C11.3488 1.84059 11.3488 1.52401 11.1535 1.32875C10.9583 1.13349 10.6417 1.13349 10.4464 1.32875L10.3868 1.38836C9.29317 0.570874 7.90745 0.0822754 6.4 0.0822754C2.86538 0.0822754 0 2.76857 0 6.08228C0 7.6346 0.628806 9.04923 1.66065 10.1145L1.64643 10.1287C1.45116 10.324 1.45116 10.6406 1.64643 10.8359C1.84169 11.0311 2.15827 11.0311 2.35353 10.8359L2.4132 10.7762C3.50683 11.5937 4.89255 12.0823 6.4 12.0823ZM2.4132 10.7762L11.1394 2.05003C10.9079 1.81111 10.6562 1.58976 10.3868 1.38836L1.66065 10.1145C1.89207 10.3534 2.14377 10.5748 2.4132 10.7762Z" fill="#0D3A91"/>
</svg>
