<svg width="13" height="13" viewBox="0 0 13 13" fill="none" xmlns="http://www.w3.org/2000/svg">
<path fill-rule="evenodd" clip-rule="evenodd" d="M6.4 12.6135C9.93462 12.6135 12.8 9.92723 12.8 6.61353C12.8 5.06121 12.1712 3.64657 11.1394 2.58128L11.1535 2.56711C11.3488 2.37184 11.3488 2.05526 11.1535 1.86C10.9583 1.66474 10.6417 1.66474 10.4464 1.86L10.3868 1.91961C9.29317 1.10212 7.90745 0.613525 6.4 0.613525C2.86538 0.613525 0 3.29982 0 6.61353C0 8.16585 0.628806 9.58048 1.66065 10.6458L1.64643 10.66C1.45116 10.8553 1.45116 11.1718 1.64643 11.3671C1.84169 11.5624 2.15827 11.5624 2.35353 11.3671L2.4132 11.3074C3.50683 12.1249 4.89255 12.6135 6.4 12.6135ZM2.4132 11.3074L11.1394 2.58128C10.9079 2.34236 10.6562 2.12101 10.3868 1.91961L1.66065 10.6458C1.89207 10.8847 2.14377 11.1061 2.4132 11.3074Z" fill="#0D3A91"/>
</svg>
