<svg width="13" height="13" viewBox="0 0 13 13" fill="none" xmlns="http://www.w3.org/2000/svg">
<path fill-rule="evenodd" clip-rule="evenodd" d="M6.48118 12.2205C10.0158 12.2205 12.8812 9.53417 12.8812 6.22046C12.8812 4.66814 12.2524 3.25351 11.2205 2.18822L11.2347 2.17404C11.43 1.97878 11.43 1.6622 11.2347 1.46693C11.0394 1.27167 10.7229 1.27167 10.5276 1.46693L10.468 1.52655C9.37435 0.709058 7.98863 0.220459 6.48118 0.220459C2.94655 0.220459 0.0811768 2.90675 0.0811768 6.22046C0.0811768 7.77278 0.709983 9.18742 1.74183 10.2527L1.7276 10.2669C1.53234 10.4622 1.53234 10.7788 1.7276 10.974C1.92286 11.1693 2.23945 11.1693 2.43471 10.974L2.49437 10.9144C3.58801 11.7319 4.97373 12.2205 6.48118 12.2205ZM2.49437 10.9144L11.2205 2.18822C10.9891 1.94929 10.7374 1.72794 10.468 1.52655L1.74183 10.2527C1.97325 10.4916 2.22495 10.713 2.49437 10.9144Z" fill="#0D3A91"/>
</svg>
