<svg width="676" height="24" viewBox="0 0 676 24" fill="none" xmlns="http://www.w3.org/2000/svg">
<g clip-path="url(#clip0_103_138)">
<circle cx="12" cy="12" r="12" fill="#F3F3F3"/>
<path d="M12 8.99994C8.68795 8.99994 5.99995 10.3439 5.99995 11.9999C5.99995 13.3439 7.76395 14.4779 10.2 14.8619V16.7999L12.6 14.3999L10.2 11.9999V13.6379C8.30995 13.3019 7.19995 12.4979 7.19995 11.9999C7.19995 11.3639 9.02395 10.1999 12 10.1999C14.976 10.1999 16.8 11.3639 16.8 11.9999C16.8 12.4379 15.924 13.1339 14.4 13.5179V14.7479C16.518 14.2859 18 13.2299 18 11.9999C18 10.3439 15.312 8.99994 12 8.99994Z" fill="#898989"/>
</g>
<defs>
<clipPath id="clip0_103_138">
<rect width="676" height="24" fill="white"/>
</clipPath>
</defs>
</svg>
