<svg width="78" height="40" viewBox="0 0 78 40" fill="none" xmlns="http://www.w3.org/2000/svg">
<mask id="path-1-inside-1_1_644" fill="white">
<path fill-rule="evenodd" clip-rule="evenodd" d="M39.2592 27H38.7408C35.9033 34.5933 28.5831 40 20 40C8.9543 40 0 31.0457 0 20C0 8.9543 8.9543 0 20 0C28.2013 0 35.2496 4.93638 38.3358 12H39.6642C42.7504 4.93638 49.7987 0 58 0C69.0457 0 78 8.9543 78 20C78 31.0457 69.0457 40 58 40C49.4169 40 42.0967 34.5933 39.2592 27Z"/>
</mask>
<path fill-rule="evenodd" clip-rule="evenodd" d="M39.2592 27H38.7408C35.9033 34.5933 28.5831 40 20 40C8.9543 40 0 31.0457 0 20C0 8.9543 8.9543 0 20 0C28.2013 0 35.2496 4.93638 38.3358 12H39.6642C42.7504 4.93638 49.7987 0 58 0C69.0457 0 78 8.9543 78 20C78 31.0457 69.0457 40 58 40C49.4169 40 42.0967 34.5933 39.2592 27Z" fill="white"/>
<path d="M39.2592 27L40.341 26.5958L40.0605 25.8451H39.2592V27ZM38.7408 27V25.8451H37.9395L37.659 26.5958L38.7408 27ZM38.3358 12L37.2776 12.4624L37.5801 13.1549H38.3358V12ZM39.6642 12V13.1549H40.4199L40.7224 12.4624L39.6642 12ZM39.2592 25.8451H38.7408V28.1549H39.2592V25.8451ZM37.659 26.5958C34.9847 33.7524 28.0856 38.8451 20 38.8451V41.1549C29.0805 41.1549 36.8219 35.4342 39.8226 27.4042L37.659 26.5958ZM20 38.8451C9.59212 38.8451 1.15486 30.4079 1.15486 20H-1.15486C-1.15486 31.6835 8.31649 41.1549 20 41.1549V38.8451ZM1.15486 20C1.15486 9.59212 9.59212 1.15486 20 1.15486V-1.15486C8.31649 -1.15486 -1.15486 8.31649 -1.15486 20H1.15486ZM20 1.15486C27.7259 1.15486 34.3685 5.80421 37.2776 12.4624L39.3941 11.5376C36.1307 4.06855 28.6766 -1.15486 20 -1.15486V1.15486ZM38.3358 13.1549H39.6642V10.8451H38.3358V13.1549ZM40.7224 12.4624C43.6315 5.80421 50.2741 1.15486 58 1.15486V-1.15486C49.3234 -1.15486 41.8693 4.06855 38.6059 11.5376L40.7224 12.4624ZM58 1.15486C68.4079 1.15486 76.8451 9.59212 76.8451 20H79.1549C79.1549 8.31649 69.6835 -1.15486 58 -1.15486V1.15486ZM76.8451 20C76.8451 30.4079 68.4079 38.8451 58 38.8451V41.1549C69.6835 41.1549 79.1549 31.6835 79.1549 20H76.8451ZM58 38.8451C49.9144 38.8451 43.0153 33.7524 40.341 26.5958L38.1774 27.4042C41.1781 35.4342 48.9195 41.1549 58 41.1549V38.8451Z" fill="#F1F1F1" mask="url(#path-1-inside-1_1_644)"/>
<path d="M55.4583 13.4L60.8916 18.8333C61.5333 19.475 61.5333 20.525 60.8916 21.1667L55.4583 26.6" stroke="#93939A" stroke-width="1.5" stroke-miterlimit="10" stroke-linecap="round" stroke-linejoin="round"/>
<path d="M22.5417 13.4L17.1084 18.8333C16.4667 19.475 16.4667 20.525 17.1084 21.1667L22.5417 26.6" stroke="#93939A" stroke-width="1.5" stroke-miterlimit="10" stroke-linecap="round" stroke-linejoin="round"/>
</svg>
