<svg width="78" height="40" viewBox="0 0 78 40" fill="none" xmlns="http://www.w3.org/2000/svg">
<mask id="path-1-inside-1_1_574" fill="white">
<path fill-rule="evenodd" clip-rule="evenodd" d="M39.2591 27H38.7407C35.9032 34.5933 28.5829 40 19.9999 40C8.95418 40 -0.00012207 31.0457 -0.00012207 20C-0.00012207 8.9543 8.95418 0 19.9999 0C28.2012 0 35.2495 4.93638 38.3357 12H39.6641C42.7503 4.93638 49.7986 0 57.9999 0C69.0456 0 77.9999 8.9543 77.9999 20C77.9999 31.0457 69.0456 40 57.9999 40C49.4168 40 42.0966 34.5933 39.2591 27Z"/>
</mask>
<path d="M39.2591 27L40.1958 26.65L39.953 26H39.2591V27ZM38.7407 27V26H38.0468L37.8039 26.65L38.7407 27ZM38.3357 12L37.4194 12.4004L37.6813 13H38.3357V12ZM39.6641 12V13H40.3184L40.5804 12.4004L39.6641 12ZM39.2591 26H38.7407V28H39.2591V26ZM37.8039 26.65C35.1077 33.8652 28.1522 39 19.9999 39V41C29.0137 41 36.6986 35.3215 39.6774 27.35L37.8039 26.65ZM19.9999 39C9.50647 39 0.999878 30.4934 0.999878 20H-1.00012C-1.00012 31.598 8.4019 41 19.9999 41V39ZM0.999878 20C0.999878 9.50659 9.50647 1 19.9999 1V-1C8.4019 -1 -1.00012 8.40202 -1.00012 20H0.999878ZM19.9999 1C27.7895 1 34.4865 5.68784 37.4194 12.4004L39.2521 11.5996C36.0124 4.18492 28.6128 -1 19.9999 -1V1ZM38.3357 13H39.6641V11H38.3357V13ZM40.5804 12.4004C43.5132 5.68784 50.2102 1 57.9999 1V-1C49.387 -1 41.9873 4.18492 38.7477 11.5996L40.5804 12.4004ZM57.9999 1C68.4933 1 76.9999 9.50659 76.9999 20H78.9999C78.9999 8.40202 69.5979 -1 57.9999 -1V1ZM76.9999 20C76.9999 30.4934 68.4933 39 57.9999 39V41C69.5979 41 78.9999 31.598 78.9999 20H76.9999ZM57.9999 39C49.8475 39 42.892 33.8652 40.1958 26.65L38.3224 27.35C41.3011 35.3215 48.9861 41 57.9999 41V39Z" fill="#E3E3E3" mask="url(#path-1-inside-1_1_574)"/>
<path d="M55.4582 13.4L60.8915 18.8333C61.5332 19.475 61.5332 20.525 60.8915 21.1667L55.4582 26.6" stroke="#93939A" stroke-width="1.5" stroke-miterlimit="10" stroke-linecap="round" stroke-linejoin="round"/>
<path d="M22.5416 13.4L17.1082 18.8333C16.4666 19.475 16.4666 20.525 17.1082 21.1667L22.5416 26.6" stroke="#93939A" stroke-width="1.5" stroke-miterlimit="10" stroke-linecap="round" stroke-linejoin="round"/>
</svg>
