<svg width="168" height="56" viewBox="0 0 168 56" fill="none" xmlns="http://www.w3.org/2000/svg">
<mask id="path-1-inside-1_1_424" fill="white">
<path fill-rule="evenodd" clip-rule="evenodd" d="M56.8821 35H55.1179C52.0096 47.0766 41.0469 56 28 56C12.536 56 0 43.464 0 28C0 12.536 12.536 0 28 0C40.6841 0 51.3983 8.43404 54.8405 20H57.1595C60.6017 8.43404 71.3159 0 84 0C96.6841 0 107.398 8.43404 110.84 20H113.16C116.602 8.43404 127.316 0 140 0C155.464 0 168 12.536 168 28C168 43.464 155.464 56 140 56C126.953 56 115.99 47.0766 112.882 35H111.118C108.01 47.0766 97.0469 56 84 56C70.9531 56 59.9904 47.0766 56.8821 35Z"/>
</mask>
<path fill-rule="evenodd" clip-rule="evenodd" d="M56.8821 35H55.1179C52.0096 47.0766 41.0469 56 28 56C12.536 56 0 43.464 0 28C0 12.536 12.536 0 28 0C40.6841 0 51.3983 8.43404 54.8405 20H57.1595C60.6017 8.43404 71.3159 0 84 0C96.6841 0 107.398 8.43404 110.84 20H113.16C116.602 8.43404 127.316 0 140 0C155.464 0 168 12.536 168 28C168 43.464 155.464 56 140 56C126.953 56 115.99 47.0766 112.882 35H111.118C108.01 47.0766 97.0469 56 84 56C70.9531 56 59.9904 47.0766 56.8821 35Z" fill="white"/>
<path d="M56.8821 35L57.8506 34.7507L57.6573 34H56.8821V35ZM55.1179 35V34H54.3427L54.1494 34.7507L55.1179 35ZM54.8405 20L53.882 20.2852L54.0948 21H54.8405V20ZM57.1595 20V21H57.9052L58.118 20.2852L57.1595 20ZM110.84 20L109.882 20.2852L110.095 21H110.84V20ZM113.16 20V21H113.905L114.118 20.2852L113.16 20ZM112.882 35L113.851 34.7507L113.657 34H112.882V35ZM111.118 35V34H110.343L110.149 34.7507L111.118 35ZM56.8821 34H55.1179V36H56.8821V34ZM54.1494 34.7507C51.1521 46.3962 40.5795 55 28 55V57C41.5142 57 52.8671 47.7569 56.0863 35.2493L54.1494 34.7507ZM28 55C13.0883 55 1 42.9117 1 28H-1C-1 44.0163 11.9837 57 28 57V55ZM1 28C1 13.0883 13.0883 1 28 1V-1C11.9837 -1 -1 11.9837 -1 28H1ZM28 1C40.2296 1 50.5626 9.13166 53.882 20.2852L55.7989 19.7148C52.234 7.73643 41.1386 -1 28 -1V1ZM54.8405 21H57.1595V19H54.8405V21ZM84 -1C70.8614 -1 59.766 7.73643 56.2011 19.7148L58.118 20.2852C61.4374 9.13166 71.7704 1 84 1V-1ZM111.799 19.7148C108.234 7.73643 97.1386 -1 84 -1V1C96.2296 1 106.563 9.13166 109.882 20.2852L111.799 19.7148ZM113.16 19H110.84V21H113.16V19ZM140 -1C126.861 -1 115.766 7.73643 112.201 19.7148L114.118 20.2852C117.437 9.13166 127.77 1 140 1V-1ZM169 28C169 11.9837 156.016 -1 140 -1V1C154.912 1 167 13.0883 167 28H169ZM140 57C156.016 57 169 44.0163 169 28H167C167 42.9117 154.912 55 140 55V57ZM111.914 35.2493C115.133 47.7569 126.486 57 140 57V55C127.42 55 116.848 46.3962 113.851 34.7507L111.914 35.2493ZM111.118 36H112.882V34H111.118V36ZM84 57C97.5142 57 108.867 47.7569 112.086 35.2493L110.149 34.7507C107.152 46.3962 96.5795 55 84 55V57ZM55.9137 35.2493C59.1329 47.7569 70.4858 57 84 57V55C71.4205 55 60.8479 46.3962 57.8506 34.7507L55.9137 35.2493Z" fill="#E3E3E3" mask="url(#path-1-inside-1_1_424)"/>
</svg>
